<svg id="Capa_1" data-name="Capa 1" xmlns="http://www.w3.org/2000/svg" viewBox="0 0 626.72 112.85"><defs><style>.cls-1{fill:#4a4a49;}</style></defs><title>2021_Logo_SHA Residences</title><path class="cls-1" d="M69.94,43a46.85,46.85,0,0,0-19.57-3.87q-8.79,0-13.43,2t-4.65,5.6c0,2.38,1.49,4.08,4.48,5.08q4,1.37,13.46,1.68,8.13.27,11,.55a33.37,33.37,0,0,1,8.32,1.57q6.9,2.52,6.9,8.77c0,4-2.1,7.09-6.28,9.33S60,77,52.18,77q-15.87,0-25.89-5.82l2.47-3a47.09,47.09,0,0,0,22.5,5.47q9.75,0,15-2.42t5.23-6.72c0-2.7-1.58-4.62-4.74-5.79-2.82-1-7.61-1.7-14.37-2-5-.19-8.46-.36-10.4-.55A35,35,0,0,1,34.23,55c-4.6-1.45-6.89-4.06-6.89-7.86q0-5.29,5.92-8.3t16.84-3q14.76,0,22.83,4.5Z"/><polygon class="cls-1" points="136.89 76.1 132.67 76.1 132.67 56.97 91.44 56.97 91.44 76.1 87.22 76.1 87.22 36.75 91.44 36.75 91.44 53.53 132.67 53.53 132.67 36.75 136.89 36.75 136.89 76.1"/><path class="cls-1" d="M187.91,62.45,173.82,40.18h-.65L159,62.45ZM201.37,76.1h-4.86l-6.44-10.21H156.9L150.31,76.1h-4.87l24.91-39.35h6.24Z"/><path class="cls-1" d="M242.53,67c.16,5.34.37,8.23,1.05,9h2.25c-.7-1.5-.92-4-1-10.73-.07-4.42-3-7.4-7.84-8l-.22,0v-.54l.2,0c6.33-1.33,8.57-6,8.57-9.58,0-7.07-4.38-10.23-14.22-10.23H209.61V76h2.26v-18h19.36C239.81,57.92,242.35,60,242.53,67ZM211.87,56.2V38.56h19.66c7.78,0,11.72,2.81,11.72,8.35,0,6.16-4.18,9.29-12.44,9.29Z"/><polygon class="cls-1" points="285.23 56.53 285.23 54.81 255.36 54.81 255.36 38.56 286.49 38.56 286.49 36.84 253.1 36.84 253.1 75.95 286.85 75.95 286.85 74.23 255.36 74.23 255.36 56.53 285.23 56.53"/><path class="cls-1" d="M310.52,76.83c5.11,0,17-1.06,17-11,0-5.63-3.67-8.48-13.08-10.18l-8.83-1.61c-7.84-1.44-10.36-3.4-10.36-8.07,0-5.54,4.76-8.35,14.13-8.35,11.27,0,14.21,5.32,14.65,9.88h2.27C325.8,38,316.42,36,308.6,36c-9.85,0-16,3.84-16,10,0,5.7,3.22,8.26,12.78,10.12l8,1.56c8.82,1.68,11.5,3.64,11.5,8.4,0,2.72-1.42,9.07-14.61,9.07-10.91,0-16.53-4-16.71-11.76h-2.26C291.43,72.3,297.89,76.83,310.52,76.83Z"/><rect class="cls-1" x="334.5" y="36.84" width="2.26" height="39.11"/><path class="cls-1" d="M345.67,36.84V76H365c12.36,0,19.45-7.13,19.45-19.56,0-8.92-3.29-19.55-19-19.55ZM382.2,56.39c0,11.34-6.07,17.84-16.65,17.84H347.94V38.56h16.95C376.22,38.56,382.2,44.73,382.2,56.39Z"/><polygon class="cls-1" points="423.39 56.53 423.39 54.81 393.53 54.81 393.53 38.56 424.65 38.56 424.65 36.84 391.27 36.84 391.27 75.95 425.01 75.95 425.01 74.23 393.53 74.23 393.53 56.53 423.39 56.53"/><polygon class="cls-1" points="435.42 39.97 467.37 75.95 470.49 75.95 470.49 36.84 468.23 36.84 468.23 72.9 467.75 72.9 467.67 72.81 435.72 36.84 432.6 36.84 432.6 75.95 434.87 75.95 434.87 39.89 435.35 39.89 435.42 39.97"/><path class="cls-1" d="M498.91,36c-11.22,0-22.58,7-22.58,20.44,0,12.42,8.87,20.45,22.58,20.45,12.22,0,19.67-7.71,20.8-15.43h-2.27c-1.69,8.46-8.77,13.71-18.53,13.71-14,0-20.31-9.41-20.31-18.73,0-10.85,8.54-18.72,20.31-18.72,9.06,0,15.85,4.25,17.8,11.09H519C516.81,40.62,509.52,36,498.91,36Z"/><polygon class="cls-1" points="558.14 56.53 558.14 54.81 528.28 54.81 528.28 38.56 559.4 38.56 559.4 36.84 526.01 36.84 526.01 75.95 559.76 75.95 559.76 74.23 528.28 74.23 528.28 56.53 558.14 56.53"/><path class="cls-1" d="M583.44,76.83c5.11,0,17-1.06,17-11,0-5.63-3.66-8.48-13.07-10.18l-8.83-1.61c-7.85-1.44-10.36-3.4-10.36-8.07,0-5.54,4.75-8.35,14.12-8.35,11.28,0,14.21,5.32,14.65,9.88h2.28C598.71,38,589.33,36,581.52,36c-9.86,0-16,3.84-16,10,0,5.7,3.23,8.26,12.78,10.12l8,1.56c8.81,1.68,11.5,3.64,11.5,8.4,0,2.72-1.43,9.07-14.61,9.07-10.91,0-16.53-4-16.71-11.76h-2.27C564.34,72.3,570.8,76.83,583.44,76.83Z"/></svg>