<?xml version="1.0" encoding="UTF-8"?>
<svg xmlns="http://www.w3.org/2000/svg" version="1.1" viewBox="0 0 400 94.2">
  <defs>
    <style>
      .cls-1 {
        fill: #5c5d5f;
      }
    </style>
  </defs>
  <!-- Generator: Adobe Illustrator 28.6.0, SVG Export Plug-In . SVG Version: 1.2.0 Build 709)  -->
  <g>
    <g id="Capa_1">
      <g>
        <path class="cls-1" d="M5.4,74c4.4,2.3,7.9,4.2,14.1,6.4,8.5,2.9,19.5,6.4,35.9,6.4s22.4-.4,33.1-4.5c8.8-3.4,14.7-9.6,14.8-16.3.2-11.8-12.5-15.1-29.2-17.1-16.3-1.9-35.5-.9-49.9-3.6-12.8-2.4-21.9-7.7-21.9-19.4C2.3,5.6,28.7,0,54.5,0s41,4,51.3,10.3l-6.2,6.2c-7.3-3.9-25.7-10.3-55.9-8.4-17.2,1.1-30.1,5.6-30.1,17.6s18,13.8,38.7,14.6c28.4,1.2,62,.7,62,25.3,0,6.3-2.8,12.7-8.7,17.4-9,7.1-24.3,10.8-42.1,11.2-32.2.6-55.6-7.5-63.4-13.4l5.4-6.8Z"/>
        <path class="cls-1" d="M138.9,2.2h9.6v38h94.6V2.2h9.2v89.9h-9.2v-43.9h-94.6v43.9h-9.6V2.2Z"/>
        <path class="cls-1" d="M329,2.2h14.2l56.8,89.9h-11.1l-15.2-23.5h-75.9l-14.6,23.5h-11.2L329,2.2ZM369.4,60.8l-32.3-50.8h-1.5s-32.2,50.8-32.2,50.8h66Z"/>
      </g>
    </g>
  </g>
</svg>